<svg width="17" height="17" viewBox="0 0 17 17" fill="none" xmlns="http://www.w3.org/2000/svg">
<path d="M1.875 16.5C1.875 16.5 0.5 16.5 0.5 15.125C0.5 13.75 1.875 9.625 8.75 9.625C15.625 9.625 17 13.75 17 15.125C17 16.5 15.625 16.5 15.625 16.5H1.875ZM8.75 8.25C9.84402 8.25 10.8932 7.8154 11.6668 7.04182C12.4404 6.26823 12.875 5.21902 12.875 4.125C12.875 3.03098 12.4404 1.98177 11.6668 1.20818C10.8932 0.434597 9.84402 0 8.75 0C7.65598 0 6.60677 0.434597 5.83318 1.20818C5.0596 1.98177 4.625 3.03098 4.625 4.125C4.625 5.21902 5.0596 6.26823 5.83318 7.04182C6.60677 7.8154 7.65598 8.25 8.75 8.25Z" fill="#FF893C"/>
</svg>
