<svg width="18" height="17" viewBox="0 0 18 17" fill="none" xmlns="http://www.w3.org/2000/svg">
<path d="M0.764771 11.941C0.764771 11.629 0.88872 11.3297 1.10935 11.1091C1.32998 10.8885 1.62922 10.7645 1.94124 10.7645H4.29418C4.6062 10.7645 4.90544 10.8885 5.12607 11.1091C5.3467 11.3297 5.47065 11.629 5.47065 11.941V15.4704C5.47065 15.7824 5.3467 16.0816 5.12607 16.3023C4.90544 16.5229 4.6062 16.6469 4.29418 16.6469H1.94124C1.62922 16.6469 1.32998 16.5229 1.10935 16.3023C0.88872 16.0816 0.764771 15.7824 0.764771 15.4704V11.941ZM6.64712 7.23509C6.64712 6.92307 6.77107 6.62383 6.9917 6.4032C7.21234 6.18257 7.51157 6.05862 7.82359 6.05862H10.1765C10.4886 6.05862 10.7878 6.18257 11.0084 6.4032C11.2291 6.62383 11.353 6.92307 11.353 7.23509V15.4704C11.353 15.7824 11.2291 16.0816 11.0084 16.3023C10.7878 16.5229 10.4886 16.6469 10.1765 16.6469H7.82359C7.51157 16.6469 7.21234 16.5229 6.9917 16.3023C6.77107 16.0816 6.64712 15.7824 6.64712 15.4704V7.23509ZM12.5295 1.35274C12.5295 1.04072 12.6534 0.741481 12.8741 0.52085C13.0947 0.300219 13.3939 0.17627 13.7059 0.17627H16.0589C16.3709 0.17627 16.6701 0.300219 16.8908 0.52085C17.1114 0.741481 17.2354 1.04072 17.2354 1.35274V15.4704C17.2354 15.7824 17.1114 16.0816 16.8908 16.3023C16.6701 16.5229 16.3709 16.6469 16.0589 16.6469H13.7059C13.3939 16.6469 13.0947 16.5229 12.8741 16.3023C12.6534 16.0816 12.5295 15.7824 12.5295 15.4704V1.35274Z" fill="#FF893C"/>
</svg>
