<svg width="15" height="19" viewBox="0 0 15 19" fill="none" xmlns="http://www.w3.org/2000/svg">
<path d="M9.875 0.59375C9.875 0.436278 9.81244 0.285255 9.7011 0.173905C9.58975 0.0625556 9.43872 0 9.28125 0L5.71875 0C5.56128 0 5.41026 0.0625556 5.29891 0.173905C5.18756 0.285255 5.125 0.436278 5.125 0.59375C5.125 0.751222 5.06244 0.902245 4.95109 1.01359C4.83974 1.12494 4.68872 1.1875 4.53125 1.1875C4.37378 1.1875 4.22276 1.25006 4.11141 1.36141C4.00006 1.47276 3.9375 1.62378 3.9375 1.78125V2.375C3.9375 2.53247 4.00006 2.68349 4.11141 2.79484C4.22276 2.90619 4.37378 2.96875 4.53125 2.96875H10.4688C10.6262 2.96875 10.7772 2.90619 10.8886 2.79484C10.9999 2.68349 11.0625 2.53247 11.0625 2.375V1.78125C11.0625 1.62378 10.9999 1.47276 10.8886 1.36141C10.7772 1.25006 10.6262 1.1875 10.4688 1.1875C10.3113 1.1875 10.1603 1.12494 10.0489 1.01359C9.93756 0.902245 9.875 0.751222 9.875 0.59375Z" fill="#FF893C"/>
<path d="M2.85094 1.1875H2.15625C1.68383 1.1875 1.23077 1.37517 0.896716 1.70922C0.562667 2.04327 0.375 2.49633 0.375 2.96875V17.2188C0.375 17.6912 0.562667 18.1442 0.896716 18.4783C1.23077 18.8123 1.68383 19 2.15625 19H12.8438C13.3162 19 13.7692 18.8123 14.1033 18.4783C14.4373 18.1442 14.625 17.6912 14.625 17.2188V2.96875C14.625 2.49633 14.4373 2.04327 14.1033 1.70922C13.7692 1.37517 13.3162 1.1875 12.8438 1.1875H12.1491C12.2156 1.37433 12.2492 1.57225 12.25 1.78125V2.375C12.25 2.84742 12.0623 3.30048 11.7283 3.63453C11.3942 3.96858 10.9412 4.15625 10.4688 4.15625H4.53125C4.05883 4.15625 3.60576 3.96858 3.27172 3.63453C2.93767 3.30048 2.75 2.84742 2.75 2.375V1.78125C2.75079 1.57225 2.78444 1.37433 2.85094 1.1875ZM10.8891 9.32663L7.32663 12.8891C7.27147 12.9444 7.20595 12.9883 7.13382 13.0182C7.06168 13.0482 6.98435 13.0636 6.90625 13.0636C6.82815 13.0636 6.75082 13.0482 6.67868 13.0182C6.60655 12.9883 6.54103 12.9444 6.48587 12.8891L4.70462 11.1079C4.64942 11.0527 4.60563 10.9871 4.57575 10.915C4.54588 10.8429 4.5305 10.7656 4.5305 10.6875C4.5305 10.6094 4.54588 10.5321 4.57575 10.46C4.60563 10.3879 4.64942 10.3223 4.70462 10.2671C4.81612 10.1556 4.96733 10.093 5.125 10.093C5.20307 10.093 5.28038 10.1084 5.35251 10.1383C5.42463 10.1681 5.49017 10.2119 5.54538 10.2671L6.90625 11.6292L10.0484 8.48587C10.1599 8.37438 10.3111 8.31175 10.4688 8.31175C10.6264 8.31175 10.7776 8.37438 10.8891 8.48587C11.0006 8.59737 11.0632 8.74858 11.0632 8.90625C11.0632 9.06392 11.0006 9.21513 10.8891 9.32663Z" fill="#FF893C"/>
</svg>
