<svg width="19" height="19" viewBox="0 0 19 19" fill="none" xmlns="http://www.w3.org/2000/svg">
<path fill-rule="evenodd" clip-rule="evenodd" d="M7.6471 1.17627H14.7059V9.41156C14.7059 9.51564 14.6783 9.61786 14.626 9.70779C14.5736 9.79772 14.4983 9.87214 14.4077 9.92346C14.3172 9.97477 14.2146 10.0011 14.1106 9.99988C14.0065 9.99862 13.9046 9.96977 13.8153 9.91627L11.1765 8.33274L8.53768 9.91745C8.44832 9.97099 8.34634 9.99985 8.24217 10.0011C8.138 10.0023 8.03538 9.9758 7.94479 9.92434C7.85421 9.87289 7.77892 9.7983 7.72661 9.70821C7.67431 9.61811 7.64687 9.51574 7.6471 9.41156V1.17627Z" fill="#B8BCBF"/>
<path d="M4.11771 0H15.8824C16.5065 0 17.1049 0.247898 17.5462 0.689161C17.9875 1.13042 18.2354 1.7289 18.2354 2.35294V16.4706C18.2354 17.0946 17.9875 17.6931 17.5462 18.1344C17.1049 18.5756 16.5065 18.8235 15.8824 18.8235H4.11771C3.49367 18.8235 2.89519 18.5756 2.45393 18.1344C2.01267 17.6931 1.76477 17.0946 1.76477 16.4706V15.2941H2.94124V16.4706C2.94124 16.7826 3.06519 17.0818 3.28582 17.3025C3.50645 17.5231 3.80569 17.6471 4.11771 17.6471H15.8824C16.1944 17.6471 16.4937 17.5231 16.7143 17.3025C16.9349 17.0818 17.0589 16.7826 17.0589 16.4706V2.35294C17.0589 2.04092 16.9349 1.74168 16.7143 1.52105C16.4937 1.30042 16.1944 1.17647 15.8824 1.17647H4.11771C3.80569 1.17647 3.50645 1.30042 3.28582 1.52105C3.06519 1.74168 2.94124 2.04092 2.94124 2.35294V3.52941H1.76477V2.35294C1.76477 1.7289 2.01267 1.13042 2.45393 0.689161C2.89519 0.247898 3.49367 0 4.11771 0Z" fill="#B8BCBF"/>
<path d="M1.76473 5.88253V5.29429C1.76473 5.13828 1.8267 4.98866 1.93702 4.87834C2.04733 4.76803 2.19695 4.70605 2.35296 4.70605C2.50897 4.70605 2.65859 4.76803 2.76891 4.87834C2.87922 4.98866 2.9412 5.13828 2.9412 5.29429V5.88253H3.52943C3.68544 5.88253 3.83506 5.9445 3.94538 6.05482C4.05569 6.16513 4.11767 6.31475 4.11767 6.47076C4.11767 6.62677 4.05569 6.77639 3.94538 6.88671C3.83506 6.99702 3.68544 7.059 3.52943 7.059H1.17649C1.02048 7.059 0.870862 6.99702 0.760547 6.88671C0.650231 6.77639 0.588257 6.62677 0.588257 6.47076C0.588257 6.31475 0.650231 6.16513 0.760547 6.05482C0.870862 5.9445 1.02048 5.88253 1.17649 5.88253H1.76473ZM1.76473 9.41194V8.8237C1.76473 8.66769 1.8267 8.51807 1.93702 8.40776C2.04733 8.29744 2.19695 8.23547 2.35296 8.23547C2.50897 8.23547 2.65859 8.29744 2.76891 8.40776C2.87922 8.51807 2.9412 8.66769 2.9412 8.8237V9.41194H3.52943C3.68544 9.41194 3.83506 9.47391 3.94538 9.58423C4.05569 9.69454 4.11767 9.84416 4.11767 10.0002C4.11767 10.1562 4.05569 10.3058 3.94538 10.4161C3.83506 10.5264 3.68544 10.5884 3.52943 10.5884H1.17649C1.02048 10.5884 0.870862 10.5264 0.760547 10.4161C0.650231 10.3058 0.588257 10.1562 0.588257 10.0002C0.588257 9.84416 0.650231 9.69454 0.760547 9.58423C0.870862 9.47391 1.02048 9.41194 1.17649 9.41194H1.76473ZM1.76473 12.9413V12.3531C1.76473 12.1971 1.8267 12.0475 1.93702 11.9372C2.04733 11.8269 2.19695 11.7649 2.35296 11.7649C2.50897 11.7649 2.65859 11.8269 2.76891 11.9372C2.87922 12.0475 2.9412 12.1971 2.9412 12.3531V12.9413H3.52943C3.68544 12.9413 3.83506 13.0033 3.94538 13.1136C4.05569 13.224 4.11767 13.3736 4.11767 13.5296C4.11767 13.6856 4.05569 13.8352 3.94538 13.9455C3.83506 14.0558 3.68544 14.1178 3.52943 14.1178H1.17649C1.02048 14.1178 0.870862 14.0558 0.760547 13.9455C0.650231 13.8352 0.588257 13.6856 0.588257 13.5296C0.588257 13.3736 0.650231 13.224 0.760547 13.1136C0.870862 13.0033 1.02048 12.9413 1.17649 12.9413H1.76473Z" fill="#B8BCBF"/>
</svg>
