<svg width="16" height="17" viewBox="0 0 16 17" fill="none" xmlns="http://www.w3.org/2000/svg">
<path d="M6.23526 16.0587V11.9352C6.23526 11.6469 6.52938 11.3528 6.82349 11.3528H9.17644C9.47055 11.3528 9.76467 11.6469 9.76467 11.9411V16.0587C9.76467 16.2147 9.82665 16.3643 9.93696 16.4746C10.0473 16.585 10.1969 16.6469 10.3529 16.6469H15.0588C15.2148 16.6469 15.3644 16.585 15.4747 16.4746C15.5851 16.3643 15.647 16.2147 15.647 16.0587V7.8234C15.6472 7.7461 15.6321 7.66953 15.6026 7.59807C15.5731 7.52661 15.5299 7.46166 15.4753 7.40693L13.8823 5.81517V1.94105C13.8823 1.78504 13.8203 1.63542 13.71 1.52511C13.5997 1.41479 13.4501 1.35282 13.2941 1.35282H12.1176C11.9616 1.35282 11.812 1.41479 11.7017 1.52511C11.5914 1.63542 11.5294 1.78504 11.5294 1.94105V3.46223L8.41644 0.348109C8.36179 0.293329 8.29688 0.249867 8.22542 0.220212C8.15395 0.190557 8.07734 0.175293 7.99997 0.175293C7.92259 0.175293 7.84598 0.190557 7.77451 0.220212C7.70305 0.249867 7.63814 0.293329 7.58349 0.348109L0.524671 7.40693C0.470081 7.46166 0.426812 7.52661 0.39734 7.59807C0.367867 7.66953 0.352768 7.7461 0.352906 7.8234V16.0587C0.352906 16.2147 0.414881 16.3643 0.525196 16.4746C0.635512 16.585 0.785132 16.6469 0.941142 16.6469H5.64702C5.80303 16.6469 5.95265 16.585 6.06297 16.4746C6.17328 16.3643 6.23526 16.2147 6.23526 16.0587Z" fill="#B8BCBF"/>
</svg>
