<svg width="182" height="182" viewBox="0 0 182 182" fill="none" xmlns="http://www.w3.org/2000/svg">
<rect width="182" height="182" rx="57" fill="#FF893C"/>
<path d="M36.532 95.464C32.719 95.464 26.651 95.054 23.412 93.619C22.018 93.004 21.239 91.159 21.772 89.683C22.551 87.428 24.683 87.223 25.954 87.633C26.282 87.756 26.651 87.838 27.061 87.92C26.979 85.706 26.979 83.328 27.061 80.827H24.765C23.33 80.827 22.346 79.064 22.346 77.67C22.346 76.276 23.33 74.39 24.765 74.39H48.176C49.529 74.39 50.718 75.989 50.718 77.629C50.718 79.023 49.775 80.827 48.176 80.827H33.785C33.621 83.492 33.621 86.157 33.744 88.863C34.687 88.945 35.63 88.945 36.532 88.945C37.393 88.945 38.336 88.904 39.279 88.863C39.279 87.469 39.238 86.116 39.156 84.804C39.074 83.697 40.14 82.057 41.985 81.77C43.707 81.442 45.798 82.508 45.921 84.148C46.003 85.419 46.044 86.649 46.044 87.92C46.413 87.838 46.782 87.756 47.11 87.633C48.996 87.059 50.636 88.207 51.251 89.683C51.825 91.036 51.128 92.84 49.652 93.619C46.536 95.259 40.304 95.464 36.532 95.464ZM21.977 105.386C20.419 105.14 18.861 103.992 19.066 101.696C19.271 99.4 21.28 98.662 22.756 98.867C29.111 99.482 43.83 99.605 50.103 98.867C51.743 98.662 53.67 99.4 53.834 101.819C53.998 104.115 52.358 105.14 50.923 105.386C46.044 106.001 27.635 106.165 21.977 105.386ZM82.837 82.959H64.92V83.328C64.92 83.533 65.084 83.697 65.289 83.779C66.724 84.23 70.824 84.435 73.899 84.435C77.22 84.435 80.91 84.107 83.493 83.41C85.174 82.918 86.609 83.533 86.978 85.009C87.306 86.28 86.445 87.469 85.133 87.92C82.591 88.781 79.434 89.15 76.4 89.273V90.257C80.459 90.216 84.19 90.052 86.65 89.765C88.167 89.642 90.176 90.052 90.34 92.348C90.463 94.193 88.864 94.931 87.429 95.177C82.55 95.792 64.141 95.956 58.483 95.177C56.925 94.931 55.326 94.07 55.572 92.02C55.818 90.011 57.458 89.642 58.893 89.765C61.435 90.011 65.33 90.175 69.512 90.257V89.232C66.724 89.068 63.977 88.74 62.378 88.125C61.189 87.633 59.59 86.444 59.221 84.64C59.016 83.533 59.057 81.442 59.221 80.335C59.426 78.941 60.902 78.162 61.681 78.162H79.475V77.752C79.475 77.342 79.229 77.137 78.696 77.137H61.886C60.656 77.137 59.631 76.112 59.631 74.718C59.631 73.324 60.533 72.34 61.886 72.34H82.304C83.411 72.34 85.502 73.037 85.871 75.21C86.035 76.522 86.035 79.228 85.789 80.704C85.543 81.975 84.067 82.959 82.837 82.959ZM80.869 102.475C80.869 102.27 80.787 102.106 80.418 102.106H65.412C65.125 102.106 65.043 102.27 65.043 102.475V102.68C65.043 103.008 65.207 103.09 65.453 103.131C67.216 103.5 70.455 103.746 73.161 103.746C75.867 103.746 78.45 103.623 80.254 103.254C80.664 103.172 80.869 103.008 80.869 102.639V102.475ZM83.985 107.805C80.828 108.83 76.564 109.035 72.833 109.076C69.02 109.076 64.182 108.707 61.763 107.764C60.574 107.272 58.975 106.493 58.606 104.689C58.319 103.295 58.401 101.245 58.565 99.974C58.77 98.334 60.123 96.899 61.722 96.899H84.231C85.994 96.899 87.183 98.334 87.388 99.974C87.511 100.917 87.634 103.336 87.347 104.689C86.978 106.37 85.42 107.354 83.985 107.805ZM103.722 98.006C104.255 98.006 105.362 97.924 105.977 97.76C106.51 97.637 106.756 97.432 106.797 96.858C107.166 91.774 106.838 80.335 106.551 78.244C106.346 76.686 107.412 74.759 109.585 74.554C111.799 74.349 113.193 75.702 113.398 77.301C113.562 78.49 113.685 81.565 113.767 85.05H117.334C117.252 81.36 117.129 77.998 116.924 75.784C116.678 74.062 118.277 72.422 119.917 72.258C121.803 72.053 123.525 73.324 123.771 75.046C124.55 80.663 124.222 100.056 123.771 104.607C123.525 106.247 121.803 107.6 120.04 107.436C118.031 107.231 116.842 105.632 116.924 103.992C117.17 101.204 117.293 96.448 117.334 91.528H113.767C113.726 94.89 113.603 97.842 113.357 99.154C113.029 100.876 112.209 102.188 110.856 102.926C109.339 103.828 106.838 104.484 103.722 104.484C100.688 104.484 98.105 103.828 96.588 102.926C95.235 102.188 94.415 100.876 94.087 99.154C93.431 95.628 93.677 80.376 94.046 77.301C94.292 75.702 95.85 74.349 97.818 74.554C100.073 74.8 101.057 76.645 100.893 78.203C100.729 79.064 100.606 81.401 100.524 84.189H103.312C104.583 84.189 105.485 85.788 105.485 87.387C105.485 88.781 104.911 90.667 103.312 90.667H100.483C100.483 93.127 100.524 95.423 100.647 96.858C100.688 97.309 100.893 97.596 101.385 97.76C102 97.924 102.82 98.006 103.722 98.006ZM135.036 96.325C133.56 96.694 131.469 96.284 130.813 94.152C130.28 92.389 131.1 90.708 132.863 90.093C138.193 88.166 141.473 85.542 141.473 78.695V76.194C141.473 75.046 142.785 73.734 144.753 73.734C146.68 73.734 148.361 74.554 148.361 76.194V79.392C148.361 88.699 141.76 94.234 135.036 96.325ZM152.666 86.567L158.734 90.38C159.882 91.118 160.661 93.086 159.39 94.931C158.242 96.612 156.233 96.612 154.716 95.669L148.689 91.979C147.5 91.241 147.09 89.068 148.197 87.51C149.304 85.952 151.518 85.829 152.666 86.567ZM130.854 105.386C129.296 105.14 127.738 103.992 127.943 101.696C128.148 99.4 130.157 98.662 131.633 98.867C137.988 99.482 152.707 99.605 158.98 98.867C160.62 98.662 162.547 99.4 162.711 101.819C162.875 104.115 161.235 105.14 159.8 105.386C154.921 106.001 136.512 106.165 130.854 105.386Z" fill="white"/>
</svg>
